<?xml version="1.0" encoding="UTF-8"?>
<!-- Generator: Adobe Illustrator 15.0.2, SVG Export Plug-In . SVG Version: 6.00 Build 0)  -->
<!DOCTYPE svg PUBLIC "-//W3C//DTD SVG 1.1//EN" "http://www.w3.org/Graphics/SVG/1.1/DTD/svg11.dtd">
<svg xmlns="http://www.w3.org/2000/svg" xmlns:xlink="http://www.w3.org/1999/xlink" version="1.1" id="Layer_1" x="0px" y="0px" width="512px" height="497.253px" viewBox="0 0 512 497.253" enable-background="new 0 0 512 497.253" xml:space="preserve">
<path d="M265.328,497.253c-60.84,0-116.467-22.235-159.468-59.013L0,452.706l40.898-100.928  C26.657,320.329,18.67,285.442,18.67,248.627C18.67,111.33,129.099,0,265.328,0C401.552,0,512,111.33,512,248.627  C512,385.962,401.577,497.253,265.328,497.253z M400.019,247.911v-0.69c0-71.74-50.579-122.907-137.834-122.907h-94.206v248.626  h92.826C348.711,372.966,400.019,319.651,400.019,247.911z M263.232,311.856h-27.558V185.422h27.558  c40.484,0,67.346,23.079,67.346,62.885v0.678C330.578,289.136,303.717,311.856,263.232,311.856z" fill="#000000"/>
</svg>
